<?xml version="1.0" encoding="utf-8"?>
<!-- Generator: Adobe Illustrator 16.0.0, SVG Export Plug-In . SVG Version: 6.00 Build 0)  -->
<!DOCTYPE svg PUBLIC "-//W3C//DTD SVG 1.1//EN" "http://www.w3.org/Graphics/SVG/1.1/DTD/svg11.dtd">
<svg version="1.1" id="Layer_1" xmlns="http://www.w3.org/2000/svg" xmlns:xlink="http://www.w3.org/1999/xlink" x="0px" y="0px"
	 width="50px" height="50px" viewBox="0 0 50 50" enable-background="new 0 0 50 50" xml:space="preserve">
<g>
	<g transform="translate(0,-952.36218)">
		<path fill="#14141E" stroke="#14141E" stroke-width="0.75" stroke-miterlimit="10" d="M24.21,962.623
			c-0.231,0.024-0.444,0.124-0.605,0.286L8.68,977.154c-0.404,0.389-0.421,1.033-0.034,1.439c0.01,0.012,0.024,0.022,0.034,0.034
			l14.925,14.248c0.385,0.41,1.028,0.43,1.438,0.047c0.411-0.384,0.431-1.029,0.047-1.438c-0.029-0.031-0.054-0.059-0.085-0.084
			l-14.152-13.504l14.152-13.515c0.412-0.381,0.436-1.024,0.054-1.438C24.842,962.71,24.526,962.589,24.21,962.623z"/>
	</g>
	<g>
		<path fill="#15151E" d="M40.312,25.806c0,0.603-0.494,1.097-1.097,1.097H10.778c-0.603,0-1.097-0.494-1.097-1.097v-0.521
			c0-0.603,0.494-1.097,1.097-1.097h28.438c0.603,0,1.097,0.494,1.097,1.097V25.806z"/>
	</g>
</g>
</svg>
