<?xml version="1.0" encoding="utf-8"?>
<!-- Generator: Adobe Illustrator 16.0.0, SVG Export Plug-In . SVG Version: 6.00 Build 0)  -->
<!DOCTYPE svg PUBLIC "-//W3C//DTD SVG 1.1//EN" "http://www.w3.org/Graphics/SVG/1.1/DTD/svg11.dtd">
<svg version="1.1" id="Layer_1" xmlns="http://www.w3.org/2000/svg" xmlns:xlink="http://www.w3.org/1999/xlink" x="0px" y="0px"
	 width="150px" height="150px" viewBox="0 0 150 150" enable-background="new 0 0 150 150" xml:space="preserve">
<g>
	<path fill="#12121D" stroke="#12121D" stroke-width="1.3315" stroke-miterlimit="10" d="M96.553,49.991H53.443
		c-2.795,0-5.071,2.471-5.071,5.516v34.506c0,3.049,2.276,5.528,5.071,5.528h12.364l5.896,8.557
		c0.836,1.215,2.037,1.911,3.301,1.911c1.252,0,2.455-0.696,3.289-1.914l5.896-8.554h12.366c2.796,0,5.072-2.479,5.072-5.528V55.507
		C101.625,52.462,99.351,49.991,96.553,49.991z M99.091,90.011c0,1.53-1.134,2.759-2.536,2.759H83.877
		c-0.051,0-0.096,0.031-0.146,0.035c-0.449-0.06-0.9,0.11-1.189,0.519l-6.274,9.111c-0.727,1.055-1.812,1.051-2.533,0l-6.278-9.111
		c-0.29-0.408-0.74-0.578-1.188-0.519c-0.048-0.004-0.093-0.035-0.145-0.035H53.443c-1.402,0-2.536-1.229-2.536-2.759V55.507
		c0-1.518,1.134-2.759,2.536-2.759h43.111c1.402,0,2.536,1.241,2.536,2.759V90.011L99.091,90.011z"/>
	
		<rect x="50.818" y="52.759" fill="#12121D" stroke="#12121D" stroke-width="1.3315" stroke-miterlimit="10" width="49.408" height="41.066"/>
	<polygon fill="#12121D" stroke="#12121D" stroke-width="1.3315" stroke-miterlimit="10" points="74.732,105.054 69.557,93.991 
		57.497,91.979 66.426,83.636 64.613,71.542 75.311,77.457 86.24,71.995 83.923,83.993 92.502,92.707 80.375,94.212 	"/>
</g>
</svg>
