<?xml version="1.0" encoding="utf-8"?>
<!-- Generator: Adobe Illustrator 16.0.0, SVG Export Plug-In . SVG Version: 6.00 Build 0)  -->
<!DOCTYPE svg PUBLIC "-//W3C//DTD SVG 1.1//EN" "http://www.w3.org/Graphics/SVG/1.1/DTD/svg11.dtd">
<svg version="1.1" id="Layer_1" xmlns="http://www.w3.org/2000/svg" xmlns:xlink="http://www.w3.org/1999/xlink" x="0px" y="0px"
	 width="150px" height="150px" viewBox="0 0 150 150" enable-background="new 0 0 150 150" xml:space="preserve">
<path fill="#6B6C77" d="M97.726,50H54.616c-2.795,0-5.071,2.48-5.071,5.524v34.507c0,3.049,2.276,5.518,5.071,5.518h12.366
	l5.894,8.557c0.846,1.225,2.047,1.92,3.302,1.92c1.251,0,2.455-0.695,3.288-1.923l5.905-8.554h12.356
	c2.806,0,5.083-2.469,5.083-5.518V55.524C102.799,52.48,100.533,50,97.726,50z M100.264,90.021c0,1.528-1.133,2.767-2.536,2.767
	H85.051c-0.052,0-0.096,0.021-0.146,0.035c-0.44-0.068-0.9,0.102-1.189,0.52l-6.275,9.111c-0.727,1.043-1.811,1.041-2.533,0
	l-6.278-9.111c-0.291-0.418-0.74-0.588-1.179-0.52c-0.058-0.014-0.103-0.035-0.153-0.035H54.617c-1.394,0-2.536-1.238-2.536-2.767
	V55.524c0-1.526,1.143-2.769,2.536-2.769h43.11c1.403,0,2.536,1.242,2.536,2.769V90.021L100.264,90.021z"/>
</svg>
