<?xml version="1.0" encoding="utf-8"?>
<!-- Generator: Adobe Illustrator 16.0.0, SVG Export Plug-In . SVG Version: 6.00 Build 0)  -->
<!DOCTYPE svg PUBLIC "-//W3C//DTD SVG 1.1//EN" "http://www.w3.org/Graphics/SVG/1.1/DTD/svg11.dtd">
<svg version="1.1" id="Layer_1" xmlns="http://www.w3.org/2000/svg" xmlns:xlink="http://www.w3.org/1999/xlink" x="0px" y="0px"
	 width="150px" height="150px" viewBox="0 0 150 150" enable-background="new 0 0 150 150" xml:space="preserve">
<g>
	<g transform="translate(0,-952.36218)">
		<g>
			<path fill="#14141D" stroke="#12121D" stroke-width="2.3967" stroke-miterlimit="10" d="M65.323,1000.389
				c-10.656,0-17.782,8.749-17.782,18.496c0,9.133,5.192,17.032,11.528,23.262c6.352,6.232,13.936,10.859,19.12,13.535
				c0.407,0.208,0.884,0.208,1.286,0c5.194-2.676,12.779-7.303,19.124-13.535c6.326-6.23,11.528-14.129,11.528-23.262
				c0-9.748-7.12-18.496-17.781-18.496c-6.279,0-10.463,3.208-13.518,7.539C75.774,1003.597,71.602,1000.389,65.323,1000.389z
				 M65.323,1003.231c6.093,0,9.426,3.042,12.289,7.832c0.397,0.668,1.268,0.888,1.945,0.491c0.207-0.123,0.377-0.294,0.5-0.491
				c2.853-4.79,6.201-7.832,12.289-7.832c9.121,0,14.943,7.259,14.943,15.654c0,8.047-4.651,15.283-10.705,21.225
				c-5.809,5.716-12.771,10.062-17.756,12.686c-4.979-2.624-11.941-6.97-17.749-12.686c-6.05-5.942-10.694-13.178-10.694-21.225
				C50.386,1010.49,56.19,1003.231,65.323,1003.231z"/>
		</g>
	</g>
	<path fill="#14141D" stroke="#12121D" stroke-width="2.3967" stroke-miterlimit="10" d="M98.465,79.979
		c0,10.84-8.784,19.635-19.636,19.635c-10.84,0-19.635-8.795-19.635-19.635c0-10.851,8.795-19.635,19.635-19.635
		C89.681,60.343,98.465,69.127,98.465,79.979z"/>
	<path fill="#14141D" stroke="#12121D" stroke-width="2.0369" stroke-miterlimit="10" d="M83.859,68.986
		c0,9.211-7.472,16.683-16.683,16.683s-16.684-7.472-16.684-16.683c0-9.211,7.473-16.684,16.684-16.684S83.859,59.775,83.859,68.986
		z"/>
	<path fill="#14141D" stroke="#12121D" stroke-width="2.0369" stroke-miterlimit="10" d="M107.829,68.986
		c0,9.211-7.472,16.683-16.684,16.683c-9.221,0-16.693-7.472-16.693-16.683c0-9.211,7.473-16.684,16.693-16.684
		C100.357,52.302,107.829,59.775,107.829,68.986z"/>
</g>
</svg>
