<?xml version="1.0" encoding="utf-8"?>
<!-- Generator: Adobe Illustrator 16.0.0, SVG Export Plug-In . SVG Version: 6.00 Build 0)  -->
<!DOCTYPE svg PUBLIC "-//W3C//DTD SVG 1.1//EN" "http://www.w3.org/Graphics/SVG/1.1/DTD/svg11.dtd">
<svg version="1.1" id="Layer_1" xmlns="http://www.w3.org/2000/svg" xmlns:xlink="http://www.w3.org/1999/xlink" x="0px" y="0px"
	 width="50px" height="50px" viewBox="0 0 50 50" enable-background="new 0 0 50 50" xml:space="preserve">
<g>
	<g>
		<g>
			<path fill="#010101" d="M24.856,8.982c-0.848,0-1.536,0.688-1.536,1.534v12.283c0,0.851,0.688,1.536,1.536,1.536
				s1.535-0.686,1.535-1.536V10.518C26.393,9.67,25.704,8.982,24.856,8.982z"/>
		</g>
	</g>
	<g>
		<g>
			<defs>
				<rect id="SVGID_1_" x="7.007" y="29.711" width="38" height="24.439"/>
			</defs>
			<clipPath id="SVGID_2_">
				<use xlink:href="#SVGID_1_"  overflow="visible"/>
			</clipPath>
			<g clip-path="url(#SVGID_2_)">
				<g>
					<path fill="#15151E" d="M37.139,11.286v24.566H12.574V11.286H37.139 M37.906,8.214h-26.1c-1.271,0-2.304,1.033-2.304,2.303
						v26.104c0,1.271,1.032,2.301,2.304,2.301h26.1c1.273,0,2.303-1.029,2.303-2.301V10.518C40.209,9.247,39.178,8.214,37.906,8.214
						L37.906,8.214z"/>
				</g>
			</g>
		</g>
	</g>
	<g>
		<g>
			<path fill="#15151E" d="M31.998,15.104l-5.973-5.97c-0.596-0.601-1.571-0.601-2.168,0c-0.602,0.6-0.602,1.57,0,2.17l5.969,5.972
				c0.6,0.599,1.574,0.599,2.172,0C32.596,16.676,32.596,15.704,31.998,15.104z"/>
		</g>
	</g>
	<g>
		<g>
			<path fill="#15151E" d="M25.856,9.134c-0.599-0.601-1.572-0.601-2.171,0l-5.972,5.97c-0.598,0.6-0.598,1.573,0,2.173
				c0.6,0.599,1.571,0.599,2.173,0l5.97-5.972C26.457,10.705,26.457,9.734,25.856,9.134z"/>
		</g>
	</g>
	<g>
		<g>
			<path fill="#15151E" d="M11.038,22.8c-0.848,0-1.535,0.688-1.535,1.535v10.749c0,0.85,0.688,1.537,1.535,1.537
				c0.847,0,1.536-0.688,1.536-1.537V24.335C12.574,23.488,11.884,22.8,11.038,22.8z"/>
		</g>
	</g>
	<g>
		<g>
			<path fill="#15151E" d="M38.676,22.8c-0.85,0-1.537,0.688-1.537,1.535v10.749c0,0.85,0.688,1.537,1.537,1.537
				c0.846,0,1.533-0.688,1.533-1.537V24.335C40.209,23.488,39.521,22.8,38.676,22.8z"/>
		</g>
	</g>
	<g>
		<g>
			<path fill="#15151E" d="M24.856,13.588c-0.848,0-1.536,0.688-1.536,1.535v12.283c0,0.848,0.688,1.535,1.536,1.535
				s1.535-0.688,1.535-1.535V15.124C26.393,14.277,25.704,13.588,24.856,13.588z"/>
		</g>
	</g>
</g>
</svg>
