<?xml version="1.0" encoding="utf-8"?>
<!-- Generator: Adobe Illustrator 16.0.0, SVG Export Plug-In . SVG Version: 6.00 Build 0)  -->
<!DOCTYPE svg PUBLIC "-//W3C//DTD SVG 1.1//EN" "http://www.w3.org/Graphics/SVG/1.1/DTD/svg11.dtd">
<svg version="1.1" id="Layer_1" xmlns="http://www.w3.org/2000/svg" xmlns:xlink="http://www.w3.org/1999/xlink" x="0px" y="0px"
	 width="160px" height="160px" viewBox="0 0 160 160" enable-background="new 0 0 160 160" xml:space="preserve">
<g>
	<path d="M57.988,124.097c5.241,0,9.696-4.193,9.696-9.696s-4.193-9.695-9.696-9.695c-5.503,0-9.434,4.455-9.434,9.695
		C48.554,119.642,52.746,124.097,57.988,124.097z M57.201,112.305c2.358,0,3.931,1.834,3.931,3.931s-1.834,3.931-3.931,3.931
		c-2.097,0-3.931-1.834-3.931-3.931S55.104,112.305,57.201,112.305z M115.115,124.097c5.241,0,9.697-4.193,9.697-9.696
		s-4.194-9.695-9.697-9.695s-9.695,4.192-9.695,9.695S109.875,124.097,115.115,124.097z M116.164,112.305
		c2.357,0,3.931,1.834,3.931,3.931s-1.834,3.931-3.931,3.931c-2.359,0-3.931-1.834-3.931-3.931S113.805,112.305,116.164,112.305z
		 M148.136,15.343h-23.323c-0.788-1.311-2.359-2.096-4.194-2.096c-1.31,0-2.357,0.524-3.405,1.31
		c-0.787-0.786-2.098-1.31-3.408-1.31c-1.309,0-2.357,0.524-3.406,1.31c-0.786-0.786-2.097-1.31-3.406-1.31
		c-1.834,0-3.145,0.786-4.193,2.096H59.56c-0.786-1.311-2.358-2.096-4.193-2.096c-1.31,0-2.358,0.524-3.406,1.31
		c-0.786-0.786-2.097-1.31-3.407-1.31c-1.311,0-2.359,0.524-3.407,1.31c-0.786-0.786-2.097-1.31-3.407-1.31
		c-1.834,0-3.145,0.786-4.193,2.096H11.866c-4.717,0-8.648,3.931-8.648,8.648c0,4.718,3.931,8.648,8.648,8.648h27.253
		c0.787,0.786,1.834,1.048,3.145,1.048c1.31,0,2.358-0.524,3.145-1.048h0.262c0.786,0.524,1.572,1.048,2.359,1.048
		C32.568,44.432,22.086,62.251,22.086,82.43c0,3.669,0.261,7.337,1.047,11.006c-1.047,3.145-1.572,6.552-1.572,10.221
		c0,1.049,0,2.359,0.262,3.407v31.184h5.503v9.173h3.93v-9.173h6.552v9.173h3.931v-9.173h6.552v9.173h3.93v-9.173h4.193h0.524
		c0,0,1.31-0.262,3.145-0.786c13.889,5.504,29.611,5.504,43.501,0c1.835,0.524,2.884,0.786,2.884,0.786h2.096v9.173h3.932v-9.173
		h6.55v9.173h3.932v-9.173h6.552v9.173h3.93v-9.173h8.124v-30.66c0-1.047,0.262-2.357,0.262-3.406c0-3.407-0.522-6.553-1.572-9.696
		c0.786-3.67,1.05-7.6,1.05-11.53c0-20.179-10.222-37.999-25.944-48.742c1.048-0.262,1.835-0.524,2.621-1.048h0.262
		c0.785,0.786,1.834,1.048,3.144,1.048c1.312,0,2.359-0.524,3.146-1.048h23.586c4.716,0,8.646-3.931,8.646-8.648
		C156.782,19.799,153.114,15.343,148.136,15.343z M37.022,27.66H11.866c-1.834,0-3.407-1.572-3.407-3.407
		c0-1.834,1.572-3.407,3.407-3.407h25.419v6.814H37.022z M43.836,29.232c0,0.786-0.786,1.573-1.572,1.573
		c-0.787,0-1.573-0.787-1.573-1.573V18.226c0-0.786,0.786-1.572,1.573-1.572c0.786,0,1.572,0.786,1.572,1.572V29.232z
		 M105.944,18.226c0-0.786,0.785-1.572,1.571-1.572s1.573,0.786,1.573,1.572v11.006c0,0.786-0.787,1.573-1.573,1.573
		s-1.571-0.787-1.571-1.573V18.226z M60.346,20.584h42.191v7.076H60.346V20.584z M53.794,18.226c0-0.786,0.786-1.572,1.572-1.572
		s1.572,0.786,1.572,1.572v11.006c0,0.786-0.786,1.573-1.572,1.573s-1.572-0.787-1.572-1.573V18.226z M47.243,29.232V18.226
		c0-0.786,0.787-1.572,1.573-1.572c0.786,0,1.572,0.786,1.572,1.572v11.006c0,0.786-0.787,1.573-1.572,1.573
		C47.768,30.543,47.243,30.019,47.243,29.232z M27.065,133.53v-11.792c3.669,5.241,8.647,9.435,14.675,11.792H27.065z
		 M53.271,130.387c-14.675,0-26.468-11.793-26.468-26.468c0-14.677,11.792-26.468,26.468-26.468
		c12.578,0,22.798,11.53,25.681,22.536L80,103.656l-1.049,3.67C76.069,118.856,65.587,130.387,53.271,130.387z M77.379,82.954
		c1.31-1.048,2.883-2.359,3.931-3.407c1.311,1.048,2.62,2.097,3.931,3.146c-1.573,1.834-2.883,3.668-3.669,5.502
		C80.263,86.099,78.689,84.264,77.379,82.954z M63.491,133.53c8.124-3.406,14.413-10.22,17.82-17.558
		c3.668,7.6,9.958,14.414,18.081,17.558C87.862,137.723,75.021,137.723,63.491,133.53z M135.556,133.53h-14.675
		c6.027-2.357,11.006-6.551,14.675-11.792V133.53z M109.351,130.387c-12.579,0-22.799-11.53-25.683-22.538l-1.047-3.668l1.047-3.669
		c2.884-11.006,13.104-22.537,25.683-22.537c14.674,0,26.468,11.792,26.468,26.468C135.818,118.594,124.024,130.387,109.351,130.387
		z M135.556,82.692c0,1.047,0,2.096-0.262,3.144c-5.765-8.122-15.199-13.627-25.943-13.627c-7.339,0-13.89,3.146-19.131,7.6
		c-2.357-1.834-6.027-4.716-7.076-5.502l-1.833-2.098l-2.097,1.835c0,0-4.979,4.192-7.337,6.027
		c-5.241-4.717-11.792-7.862-19.392-7.862c-10.483,0-19.917,5.242-25.682,13.104c0-0.786-0.262-1.834-0.262-2.62
		c0-22.537,13.888-41.93,33.543-50.053h40.882C121.667,41.025,135.556,60.417,135.556,82.692z M115.901,29.232
		c0,0.786-0.786,1.573-1.572,1.573s-1.571-0.787-1.571-1.573V18.226c0-0.786,0.785-1.572,1.571-1.572s1.572,0.786,1.572,1.572
		V29.232z M122.453,29.232c0,0.786-0.786,1.573-1.572,1.573s-1.572-0.787-1.572-1.573V18.226c0-0.786,0.786-1.572,1.572-1.572
		s1.572,0.786,1.572,1.572V29.232z M148.136,27.66h-22.276v-7.076h22.276c1.833,0,3.406,1.572,3.406,3.407
		C151.542,25.826,150.231,27.66,148.136,27.66z"/>
</g>
</svg>
