<?xml version="1.0" encoding="utf-8"?>
<!-- Generator: Adobe Illustrator 16.0.0, SVG Export Plug-In . SVG Version: 6.00 Build 0)  -->
<!DOCTYPE svg PUBLIC "-//W3C//DTD SVG 1.1//EN" "http://www.w3.org/Graphics/SVG/1.1/DTD/svg11.dtd">
<svg version="1.1" id="Layer_1" xmlns="http://www.w3.org/2000/svg" xmlns:xlink="http://www.w3.org/1999/xlink" x="0px" y="0px"
	 width="150px" height="150px" viewBox="0 0 150 150" enable-background="new 0 0 150 150" xml:space="preserve">
<g transform="translate(0,-952.36218)">
	<g>
		<path fill="#6B6C77" d="M62.493,1000.638c-10.654,0-17.781,8.748-17.781,18.486c0,9.143,5.182,17.041,11.527,23.271
			c6.353,6.232,13.927,10.859,19.132,13.536c0.386,0.208,0.873,0.208,1.267,0c5.204-2.677,12.778-7.304,19.123-13.536
			c6.346-6.23,11.527-14.129,11.527-23.271c0-9.738-7.119-18.486-17.781-18.486c-6.279,0-10.442,3.208-13.507,7.529
			C72.936,1003.845,68.771,1000.638,62.493,1000.638z M62.493,1003.479c6.095,0,9.417,3.042,12.289,7.822
			c0.39,0.678,1.278,0.897,1.938,0.5c0.216-0.123,0.386-0.294,0.498-0.5c2.854-4.78,6.204-7.822,12.289-7.822
			c9.121,0,14.944,7.259,14.944,15.645c0,8.057-4.651,15.293-10.685,21.225c-5.826,5.717-12.781,10.072-17.767,12.695
			c-4.978-2.623-11.94-6.979-17.758-12.695c-6.042-5.932-10.686-13.168-10.686-21.225
			C47.557,1010.739,53.373,1003.479,62.493,1003.479z"/>
	</g>
</g>
</svg>
