<?xml version="1.0" encoding="utf-8"?>
<!-- Generator: Adobe Illustrator 16.0.0, SVG Export Plug-In . SVG Version: 6.00 Build 0)  -->
<!DOCTYPE svg PUBLIC "-//W3C//DTD SVG 1.1//EN" "http://www.w3.org/Graphics/SVG/1.1/DTD/svg11.dtd">
<svg version="1.1" id="Layer_1" xmlns="http://www.w3.org/2000/svg" xmlns:xlink="http://www.w3.org/1999/xlink" x="0px" y="0px"
	 width="50px" height="50px" viewBox="0 0 50 50" enable-background="new 0 0 50 50" xml:space="preserve">
<g>
	<g>
		<g>
			<path fill="#396FB5" d="M24.641,39.305L24.641,39.305L24.641,39.305c-0.107,0-0.061-0.014,0.052-0.059
				c0.216-0.092,0.504-0.238,0.841-0.434c0.756-0.436,1.696-1.071,2.706-1.836c2.374-1.801,4.827-4.07,6.867-6.44
				c5.214-6.06,6.956-11.67,4.135-15.936l0.037,0.05c-1.215-1.685-2.529-2.648-3.935-3.028c-2.133-0.576-4.569,0.178-7.037,1.859
				c-0.684,0.466-1.312,0.968-1.874,1.469c-0.19,0.173-0.362,0.334-0.506,0.476c-0.084,0.081-0.137,0.135-0.158,0.157l-1.128,1.198
				l-1.129-1.198c-0.021-0.022-0.073-0.077-0.156-0.157c-0.146-0.142-0.317-0.303-0.511-0.476c-0.558-0.5-1.188-1.003-1.87-1.469
				c-2.468-1.681-4.904-2.435-7.039-1.859c-1.406,0.38-2.719,1.343-3.934,3.028l0.039-0.05c-2.822,4.266-1.082,9.876,4.133,15.936
				c2.04,2.37,4.493,4.64,6.868,6.44c1.009,0.765,1.949,1.4,2.705,1.836c0.338,0.195,0.625,0.342,0.842,0.434
				C24.7,39.291,24.747,39.305,24.641,39.305L24.641,39.305z M24.641,40.854L24.641,40.854c-2.37,0-23.382-15.789-15.896-27.108
				c6.567-9.125,15.896,0.773,15.896,0.773s9.327-9.899,15.896-0.773C48.021,25.065,27.009,40.854,24.641,40.854L24.641,40.854z"/>
		</g>
	</g>
	<circle fill="#396FB5" cx="16.174" cy="19.99" r="9.034"/>
	<circle fill="#396FB5" cx="32.712" cy="19.99" r="9.034"/>
	<circle fill="#396FB5" cx="24.641" cy="31.247" r="8.061"/>
	<circle fill="#396FB5" cx="20.749" cy="25.368" r="9.033"/>
	<circle fill="#396FB5" cx="28.949" cy="25.368" r="9.034"/>
</g>
</svg>
